<?xml version="1.0" encoding="UTF-8" standalone="no"?>
<svg
   width="255.99998"
   height="221.78642"
   version="1.1"
   xml:space="preserve"
   id="svg72"
   sodipodi:docname="alpine.svg"
   inkscape:version="1.1.2 (b8e25be833, 2022-02-05)"
   xmlns:inkscape="http://www.inkscape.org/namespaces/inkscape"
   xmlns:sodipodi="http://sodipodi.sourceforge.net/DTD/sodipodi-0.dtd"
   xmlns="http://www.w3.org/2000/svg"
   xmlns:svg="http://www.w3.org/2000/svg"
   xmlns:rdf="http://www.w3.org/1999/02/22-rdf-syntax-ns#"
   xmlns:cc="http://creativecommons.org/ns#"
   xmlns:dc="http://purl.org/dc/elements/1.1/"><defs
     id="defs76" /><sodipodi:namedview
     id="namedview74"
     pagecolor="#ffffff"
     bordercolor="#666666"
     borderopacity="1.0"
     inkscape:pageshadow="2"
     inkscape:pageopacity="0.0"
     inkscape:pagecheckerboard="0"
     showgrid="false"
     fit-margin-top="0"
     fit-margin-left="0"
     fit-margin-right="0"
     fit-margin-bottom="0"
     inkscape:zoom="1.5909774"
     inkscape:cx="-39.912571"
     inkscape:cy="86.110586"
     inkscape:window-width="1920"
     inkscape:window-height="1017"
     inkscape:window-x="-8"
     inkscape:window-y="-8"
     inkscape:window-maximized="1"
     inkscape:current-layer="g70" /><title
     id="title2">Alpine Linux logo</title><metadata
     id="metadata4"><rdf:RDF><cc:Work
         rdf:about=""><dc:format>image/svg+xml</dc:format><dc:type
           rdf:resource="http://purl.org/dc/dcmitype/StillImage" /><dc:title>Alpine Linux logo</dc:title></cc:Work></rdf:RDF></metadata><g
     transform="matrix(1.25,0,0,-1.25,-267.55,591.55874)"
     id="g70"><g
       transform="translate(687,398)"
       style="fill:#0d597f"
       id="g8" /><g
       transform="translate(442,443)"
       style="fill:#0d597f"
       id="g12" /><g
       transform="translate(598,375)"
       style="fill:#0d597f"
       id="g16" /><g
       transform="translate(580,375)"
       style="fill:#0d597f"
       id="g20" /><g
       transform="translate(592,444)"
       style="fill:#0d597f"
       id="g24" /><g
       transform="translate(519,443)"
       style="fill:#0d597f"
       id="g28" /><g
       transform="translate(517,345)"
       style="fill:#0d597f"
       id="g32" /><g
       transform="translate(473,474)"
       style="fill:#0d597f"
       id="g36" /><g
       transform="translate(475,402)"
       style="fill:#0d597f"
       id="g40" /><g
       transform="matrix(1.3754197,0,0,1.3754197,288.25765,362.87369)"
       style="fill:#0d597f"
       id="g44"><path
         d="M 0,0 V 15.7 L -11.3,4.4 c 1.22,-0.847 2.36,-1.54 3.44,-2.11 1.08,-0.567 2.09,-1 3.03,-1.34 C -3.889,0.616 -3.02,0.388 -2.21,0.24 -1.406,0.093 -0.67,0.027 0,0.018 m 57.8,1.3 c 0.02,-0.017 0.13,-0.11 0.333,-0.239 0.204,-0.13 0.502,-0.297 0.898,-0.462 0.395,-0.164 0.889,-0.327 1.48,-0.448 0.596,-0.122 1.29,-0.202 2.1,-0.202 0.671,0 1.41,0.059 2.22,0.2 0.812,0.142 1.69,0.367 2.64,0.699 0.953,0.333 1.98,0.773 3.07,1.34 1.09,0.572 2.26,1.28 3.5,2.14 l -8.57,8.4 -28.4,28.5 -12.5,-12.5 -16.8,17.3 -42.2,-41.7 c 1.24,-0.86 2.4,-1.56 3.49,-2.14 1.09,-0.571 2.12,-1.01 3.07,-1.34 0.951,-0.332 1.83,-0.557 2.64,-0.698 0.81,-0.142 1.55,-0.201 2.22,-0.201 0.804,0 1.5,0.08 2.1,0.202 0.596,0.121 1.09,0.284 1.48,0.449 0.396,0.164 0.693,0.331 0.897,0.461 0.204,0.13 0.314,0.223 0.334,0.24 l 19.1,19.1 6.81,6.53 18.9,-18.9 6.59,-6.78 c 0.02,-0.017 0.13,-0.11 0.334,-0.239 0.204,-0.13 0.501,-0.297 0.897,-0.462 0.396,-0.164 0.89,-0.327 1.48,-0.448 0.596,-0.122 1.3,-0.202 2.1,-0.202 0.67,0 1.41,0.059 2.22,0.2 0.811,0.142 1.69,0.367 2.64,0.699 0.952,0.333 1.98,0.773 3.07,1.34 1.09,0.572 2.26,1.28 3.5,2.14 l -15.1,14.8 2.82,2.82 13.1,-13.1 7.64,-7.57 m -0.163,79 37.2,-64.5 -37.2,-64.5 h -74.5 l -37.2,64.5 37.2,64.5 z"
         style="fill:#0d597f"
         id="path42" /></g><g
       transform="translate(303,412)"
       style="fill:#0d597f"
       id="g48"><path
         d="m 0,0 -9.91,9.9 0.705,0.709 9.98,-9.87 z"
         style="fill:#0d597f"
         id="path46" /></g><g
       transform="translate(528,353)"
       style="fill:#0d597f"
       id="g52" /><g
       transform="translate(665,367)"
       style="fill:#0d597f"
       id="g60" /><g
       transform="translate(634,353)"
       style="fill:#0d597f"
       id="g64" /><g
       transform="translate(585,367)"
       style="fill:#0d597f"
       id="g68" /></g></svg>
