<?xml version="1.0" encoding="UTF-8" standalone="no"?>
<svg
   height="256"
   width="256"
   version="1.1"
   viewBox="0 0 256 256"
   id="svg6"
   sodipodi:docname="arch.svg"
   inkscape:version="1.1.2 (b8e25be833, 2022-02-05)"
   xmlns:inkscape="http://www.inkscape.org/namespaces/inkscape"
   xmlns:sodipodi="http://sodipodi.sourceforge.net/DTD/sodipodi-0.dtd"
   xmlns="http://www.w3.org/2000/svg"
   xmlns:svg="http://www.w3.org/2000/svg">
  <defs
     id="defs10" />
  <sodipodi:namedview
     id="namedview8"
     pagecolor="#ffffff"
     bordercolor="#666666"
     borderopacity="1.0"
     inkscape:pageshadow="2"
     inkscape:pageopacity="0.0"
     inkscape:pagecheckerboard="0"
     showgrid="false"
     fit-margin-top="0"
     fit-margin-left="0"
     fit-margin-right="0"
     fit-margin-bottom="0"
     inkscape:zoom="2.1073774"
     inkscape:cx="24.912481"
     inkscape:cy="150.89846"
     inkscape:window-width="1920"
     inkscape:window-height="1017"
     inkscape:window-x="-8"
     inkscape:window-y="-8"
     inkscape:window-maximized="1"
     inkscape:current-layer="svg6" />
  <path
     d="M 128.00716,0 C 116.60314,27.938479 109.72432,46.237754 97.032968,73.345334 104.82203,81.591906 114.36655,91.14789 129.86665,101.99378 113.19624,95.133343 101.84424,88.295008 93.339984,81.147199 77.098691,115.0294 51.624953,163.24623 0,256 c 40.572032,-23.4186 72.040352,-37.83905 101.35011,-43.35236 -1.26133,-5.4093 -1.963523,-11.2867 -1.911511,-17.39816 l 0.039,-1.2613 c 0.637171,-25.99322 14.173751,-46.005 30.193991,-44.65268 16.02023,1.35232 28.47753,23.57464 27.82736,49.56785 -0.11704,4.88917 -0.66318,9.58329 -1.62544,13.93933 C 184.85818,218.52504 216.00142,232.90648 256,256 c -7.89309,-14.52447 -14.96696,-27.5926 -21.68974,-40.06258 -10.5978,-8.21796 -21.62472,-18.90652 -44.17268,-30.47928 15.4871,4.03096 26.61804,8.66007 35.26532,13.86131 C 157.00482,71.969605 151.45236,55.04996 128.00716,0.00780187 Z"
     fill="#1793d1"
     id="path2"
     sodipodi:nodetypes="ccccccccscccccccc"
     style="stroke-width:1.30033" />
</svg>
