<?xml version="1.0" encoding="UTF-8" standalone="no"?>
<svg
   version="1.0"
   width="256"
   height="256"
   id="svg2"
   sodipodi:docname="fedora.svg"
   inkscape:version="1.1.2 (b8e25be833, 2022-02-05)"
   xmlns:inkscape="http://www.inkscape.org/namespaces/inkscape"
   xmlns:sodipodi="http://sodipodi.sourceforge.net/DTD/sodipodi-0.dtd"
   xmlns:xlink="http://www.w3.org/1999/xlink"
   xmlns="http://www.w3.org/2000/svg"
   xmlns:svg="http://www.w3.org/2000/svg">
  <sodipodi:namedview
     id="namedview10"
     pagecolor="#ffffff"
     bordercolor="#666666"
     borderopacity="1.0"
     inkscape:pageshadow="2"
     inkscape:pageopacity="0.0"
     inkscape:pagecheckerboard="0"
     showgrid="false"
     fit-margin-top="0"
     fit-margin-left="0"
     fit-margin-right="0"
     fit-margin-bottom="0"
     inkscape:zoom="2.2007705"
     inkscape:cx="121.09395"
     inkscape:cy="151.31064"
     inkscape:window-width="1920"
     inkscape:window-height="1017"
     inkscape:window-x="-8"
     inkscape:window-y="-8"
     inkscape:window-maximized="1"
     inkscape:current-layer="svg2" />
  <defs
     id="defs5" />
  <path
     d="M 256,128.00589 C 256,57.311137 198.69139,0 127.998,0 57.336398,0 0.05013245,57.263014 0,127.91563 v 99.0556 C 0.0380272,243.01335 13.048667,256 29.100685,256 H 128.04992 C 198.7197,255.9723 256,198.68184 256,128.00589"
     id="voice"
     style="fill:#294172;stroke-width:0.961503" />
  <path
     d="m 73.79685,136.26663 c 0,0 46.00258,0 46.00258,0 0,0 0,46.00315 0,46.00315 0,25.39371 -20.609157,46.00311 -46.00258,46.00311 -25.393432,0 -46.002589,-20.6094 -46.002589,-46.00311 0,-25.39373 20.609157,-46.00315 46.002589,-46.00315 z"
     id="in"
     style="fill:none;stroke:#3c6eb4;stroke-width:28.0854" />
  <use
     transform="rotate(180,119.68858,136.31136)"
     id="finity"
     xlink:href="#in"
     x="0"
     y="0"
     width="100%"
     height="100%" />
  <path
     d="m 133.87225,122.25905 v 59.94638 c 0,33.1759 -26.89824,60.07504 -60.074918,60.07504 -5.033379,0 -8.611638,-0.56826 -13.270918,-1.7862 -6.793889,-1.77794 -12.346062,-7.34835 -12.34837,-13.82755 0,-7.83161 5.684716,-13.52833 14.182359,-13.52833 4.044411,0 5.511944,0.77656 11.436929,0.77656 17.491177,0 31.679058,-14.16801 31.709738,-31.65938 v -27.55353 c 0,-2.46891 -2.00629,-4.46933 -4.4793,-4.46933 l -20.831032,-0.004 c -7.761319,0 -14.032096,-6.1906 -14.032096,-13.97327 -0.0041,-7.83106 6.335111,-13.99627 14.180234,-13.99627"
     id="free"
     style="fill:#ffffff;stroke-width:0.961503" />
  <use
     transform="rotate(180,119.68858,136.31136)"
     id="dom"
     xlink:href="#free"
     x="0"
     y="0"
     width="100%"
     height="100%" />
</svg>
