<?xml version="1.0" encoding="UTF-8" standalone="no"?>
<svg
   viewBox="0 0 255.99989 192.73976"
   version="1.1"
   id="svg23"
   sodipodi:docname="kali.svg"
   width="255.99989"
   height="192.73976"
   inkscape:version="1.1.2 (b8e25be833, 2022-02-05)"
   xmlns:inkscape="http://www.inkscape.org/namespaces/inkscape"
   xmlns:sodipodi="http://sodipodi.sourceforge.net/DTD/sodipodi-0.dtd"
   xmlns="http://www.w3.org/2000/svg"
   xmlns:svg="http://www.w3.org/2000/svg">
  <defs
     id="defs27" />
  <sodipodi:namedview
     id="namedview25"
     pagecolor="#ffffff"
     bordercolor="#666666"
     borderopacity="1.0"
     inkscape:pageshadow="2"
     inkscape:pageopacity="0.0"
     inkscape:pagecheckerboard="0"
     showgrid="false"
     fit-margin-top="0"
     fit-margin-left="0"
     fit-margin-right="0"
     fit-margin-bottom="0"
     inkscape:zoom="1.1476675"
     inkscape:cx="111.96623"
     inkscape:cy="108.04524"
     inkscape:window-width="1920"
     inkscape:window-height="1017"
     inkscape:window-x="-8"
     inkscape:window-y="-8"
     inkscape:window-maximized="1"
     inkscape:current-layer="svg23" />
  <linearGradient
     id="a"
     gradientUnits="userSpaceOnUse"
     x1="194.59435"
     x2="313.27072"
     y1="356.76059"
     y2="238.0842">
    <stop
       offset="0"
       stop-color="#249eff"
       id="stop2" />
    <stop
       offset="1"
       stop-color="#2777ff"
       id="stop4" />
  </linearGradient>
  <path
     d="m 45.159535,3.7715644 c -18.468717,0.02094 -30.668423,1.507919 -30.769485,1.520262 -4.13e-4,5.6e-5 -0.06989,0.0069 -0.06989,0.0069 -1.205719,0.138672 -1.05243,1.934869 0.159378,1.867199 0,0 67.153314,-3.1726 120.980152,18.4611866 1.92039,8.216219 6.99238,20.810119 9.98818,27.504079 -4.07851,2.79921 -8.45413,5.64099 -12.05403,10.15034 -3.77855,4.73309 -6.6342,11.26562 -7.39517,21.25372 -1.5425,20.260979 15.83414,37.997419 37.32623,38.544239 19.92947,1.06132 33.47902,1.2074 49.97424,9.75662 7.70365,4.26474 14.87848,13.03111 20.23668,23.73906 5.36102,10.71388 8.91849,23.35426 9.55709,35.2746 0.061,1.17167 1.78188,1.19318 1.87081,0.0247 0.004,-0.0378 -0.001,-0.0874 0.001,-0.12213 0.69177,-9.12798 -0.65584,-23.25664 -6.1276,-36.69736 -4.58351,-11.25815 -12.15532,-21.97637 -23.79678,-28.69842 16.73187,4.56913 26.30999,13.06099 31.81656,20.81992 6.31787,8.90295 7.25076,16.82694 7.24543,16.78261 0.13299,1.12062 1.76742,1.09473 1.86477,-0.0309 0,0 0.83072,-9.71292 -5.87105,-20.41448 -6.70221,-10.70099 -20.92942,-22.39848 -50.59069,-26.75139 -7.51279,-1.10231 -16.99454,-1.94949 -26.60325,-1.97354 -0.005,-4e-5 -0.011,-4e-5 -0.0158,0 -23.25224,0.30738 -34.97397,-12.94577 -36.79895,-26.539339 -0.91262,-6.79714 0.68334,-13.68166 4.63213,-19.01667 3.94851,-5.33517 10.23214,-9.15495 18.89028,-9.8314 h 0.004 c 14.21592,-1.17343 31.55444,6.51518 48.60551,14.44885 -0.0183,1.97 0.15735,3.95762 1.59748,5.7571 0.96403,1.20496 2.70309,2.04263 4.47367,2.87901 1.76993,0.83565 3.59133,1.59364 4.31434,2.00772 1.64289,0.94325 7.12395,4.45894 10.35456,8.66448 0.4149,0.54053 1.24961,0.47245 1.57086,-0.12845 0.018,-0.0327 0.50758,-0.59773 1.15615,-1.14041 0.64787,-0.54233 1.47037,-1.16016 2.27148,-1.73693 1.60247,-1.15338 3.11925,-2.14196 3.11925,-2.14196 0.7896,-0.51486 0.41134,-1.74157 -0.53091,-1.72271 0,0 -0.23049,0.014 -0.96632,-0.12735 -0.73558,-0.14051 -1.90562,-0.43598 -3.57014,-1.05828 -1.53146,-0.57229 -3.3615,-1.81186 -4.77255,-2.93259 -0.70618,-0.5605 -1.31317,-1.08996 -1.74244,-1.48712 -0.0532,-0.0495 -0.0739,-0.0713 -0.1187,-0.11458 0.44825,-0.4034 0.50986,-1.04823 0.41904,-1.45396 -0.0944,-0.41458 -0.27316,-0.75015 -0.47542,-1.07781 -0.40496,-0.65378 -0.91941,-1.23664 -1.27509,-1.59262 l -0.001,-10e-4 c 0.0526,0.053 -0.10784,-0.13162 -0.26346,-0.36256 -0.15919,-0.23224 -0.36331,-0.54535 -0.59363,-0.90721 -0.45985,-0.7238 -1.02436,-1.64353 -1.57306,-2.55003 -1.09737,-1.81313 -2.0877,-3.49823 -2.18309,-3.65845 -10e-4,-0.003 -0.23847,-0.50175 -0.69921,-0.80952 -0.075,-0.0492 -0.1509,-0.0881 -0.23384,-0.11403 -0.51974,-0.16714 -0.93175,-0.12776 -1.46535,-0.10249 -0.53306,0.0289 -1.12509,0.0918 -1.68553,0.16162 -0.93807,0.12008 -1.52009,0.22572 -1.77437,0.26973 -0.63415,-0.33463 -5.59093,-3.08041 -7.41241,-8.67489 -0.33636,-1.02653 -1.85526,-0.7643 -1.82836,0.31486 0.011,0.36754 -0.5461,1.46295 -0.42507,3.12044 -2.20268,-1.32726 -4.09728,-3.43566 -5.74782,-7.77942 -0.30301,-0.80105 -1.43295,-0.80965 -1.74801,-0.014 -0.63206,1.58946 -0.6705,2.91914 -0.54227,3.95036 -2.09165,-0.98358 -5.51728,-3.14861 -6.26368,-7.45059 -0.16007,-0.92044 -1.42085,-1.06583 -1.7863,-0.20601 -0.61487,1.45058 -0.66946,2.65093 -0.56625,3.61805 -3.89834,-1.67205 -14.63571,-5.58229 -30.66008,-5.66902 -3.09319,-0.28406 -5.55076,-1.8317 -7.57002,-4.15249 -2.01857,-2.3211 -3.55187,-5.41488 -4.6379,-8.61856 -1.08556,-3.204 -1.72757,-6.515717 -2.01774,-9.247556 -0.29074,-2.732085 -0.1683,-4.990793 0.0357,-5.638417 0.13519,-0.431743 -0.0587,-0.89851 -0.4571,-1.109559 0,0 -19.59551,-10.308383 -57.903298,-14.8398786 C 69.6779,4.2773744 56.289304,3.7581234 45.161748,3.7708034 Z M 89.895792,24.185604 c -5.83705,0.04381 -12.10242,0.261559 -18.685912,0.729466 -35.168555,2.499786 -70.57438707,14.787181 -70.57438707,14.787181 -1.132583,0.39087 -0.625805,2.08877 0.53576997,1.79488 0,0 72.2127091,-18.124095 132.5365571,-7.50062 0.0541,0.0104 0.10881,0.0146 0.16184,0.0148 h 0.003 c 0.63132,-2.6e-4 1.08164,-0.61193 0.89477,-1.215041 l -1.57639,-5.087957 c -0.10496,-0.335457 -0.38615,-0.584821 -0.73209,-0.64612 0,0 -17.27162,-3.066091 -42.561138,-2.876204 -0.003,-2.2e-5 -0.005,-2.2e-5 -0.008,0 z m 42.880198,10.836937 c -6.20707,-0.0261 -25.30661,0.75577 -53.993958,9.73213 -36.002189,11.26513 -56.493404,27.28013 -56.493404,27.28013 -0.902901,0.714 0.02713,2.11223 1.034739,1.55557 0,0 53.307735,-29.73053 113.340693,-31.4178 0.62705,-0.018 1.06016,-0.6352 0.86349,-1.23088 l -1.72502,-5.22163 c -0.1198,-0.36221 -0.44703,-0.61577 -0.8276,-0.64123 0,0 -0.76474,-0.0502 -2.19709,-0.0566 z m 39.25158,-0.0871 c -0.91923,0.0137 -1.27197,1.20505 -0.50729,1.71645 h 10e-4 c 0.0565,0.037 0.11334,0.0677 0.17504,0.0922 16.46324,6.69336 30.74245,15.54042 41.81153,27.70149 0.011,0.011 0.0217,0.0231 0.0324,0.0335 l 0.001,0.001 c 0.19072,0.1904 0.45457,0.28932 0.72352,0.272 l 2.68598,-0.17551 c 0.76194,-0.0511 1.14747,-0.94141 0.66205,-1.53121 0,0 -15.55361,-18.84881 -45.20901,-28.03483 -0.004,-10e-4 -0.007,-0.005 -0.011,-0.006 -0.0162,-0.006 -0.0316,-0.0115 -0.0462,-0.0157 -0.01,-0.003 -0.0184,-0.006 -0.0275,-0.009 -0.097,-0.0304 -0.19403,-0.045 -0.29412,-0.0439 z m 46.87809,39.68767 c 0.53844,0.1099 1.55429,2.10698 2.48777,3.53439 0.0832,0.11623 0.16493,0.23949 0.24395,0.33736 0,0.01 0.001,0.0158 0.008,0.025 0.10785,0.15009 0.21074,0.30632 0.31158,0.43131 0.0519,0.29851 0.13559,0.48115 -0.56301,0.33735 -0.0607,-0.30706 -0.15925,-0.39624 -0.15925,-0.39624 0,0 -1.68603,-1.00207 -2.20328,-1.71366 -0.51721,-0.71148 -0.60731,-1.95555 -0.35548,-2.42776 0.0621,-0.1077 0.13885,-0.14381 0.23065,-0.12598 z"
     opacity="0.3"
     id="path15"
     style="stroke-width:0.627753" />
  <g
     fill="#ffffff"
     transform="matrix(0.62771861,0,0,0.62771861,1.2649109,-79.225339)"
     id="g21">
    <path
       d="m 69.929,127.71 c -29.464,0.0337 -48.949,2.4206 -48.949,2.4206 0,0 107.73,-5.1706 194.03,29.769 2.9338,13.122 11.759,34.976 16.513,45.481 -13.602,9.4041 -28.94,18.249 -31.328,49.612 -2.3877,31.362 24.576,58.947 58.013,59.798 31.751,1.6913 53.688,1.9323 80.277,15.718 25.38,14.034 46.192,56.794 48.251,95.252 2.2244,-28.534 -8.4845,-89.895 -58.453,-108.53 69.826,12.219 75.982,63.973 75.984,63.994 0,0 5.2056,-59.754 -88.677,-73.531 -11.899,-1.7458 -26.947,-3.0899 -42.168,-3.1283 -75.246,0.99487 -77.989,-86.786 -21.288,-91.218 23.499,-1.9389 51.556,10.738 78.986,23.512 -0.10182,3.4068 0.0405,6.4339 2.2787,9.2314 2.2375,2.7966 10.832,5.8474 13.579,7.4233 2.7464,1.5764 11.545,7.1715 16.937,14.189 1.1692,-2.1872 10.933,-8.5432 10.933,-8.5432 0,0 -2.3391,0.0507 -7.781,-1.9832 -5.4426,-2.0339 -11.9,-8.1876 -12.053,-8.5432 -0.15246,-0.35625 -0.25501,-0.91601 1.0169,-1.1705 0.96572,-0.81305 -1.2209,-3.4575 -2.1873,-4.4232 -0.96572,-0.96636 -7.4247,-11.95 -7.5769,-12.204 -0.15245,-0.25447 -0.20376,-0.50931 -0.66105,-0.81465 -1.4244,-0.45805 -7.6799,0.66106 -7.6799,0.66106 0,0 -9.6211,-4.7252 -12.937,-14.913 0.0482,1.7844 -1.6497,3.734 0,7.8335 -5.0162,-2.122 -9.325,-5.7416 -12.723,-14.685 -2.0227,5.0868 0,8.3215 0,8.3215 0,0 -11.811,-3.3016 -13.701,-14.195 -2.0742,4.8902 0,7.8316 0,7.8316 0,0 -19.258,-10.048 -51.255,-10.194 -21.422,-1.965 -25.882,-39.65 -23.897,-45.994 0,0 -30.899,-16.285 -91.723,-23.479 -22.809,-2.6982 -44.081,-3.5238 -61.76,-3.5036 z m 71.276,32.521 c -9.2697,0.0699 -19.22,0.41577 -29.674,1.1588 -55.751,3.9628 -112.04,23.477 -112.04,23.477 0,0 115.18,-28.98 211.77,-11.971 h 0.002 l -2.512,-8.1057 c 0,0 -27.374,-4.862 -67.542,-4.5594 z m 68.293,17.263 c -9.75,-0.0412 -40.02,1.1848 -85.564,15.436 -57.124,17.874 -89.522,43.21 -89.522,43.21 0,0 85.141,-47.539 181.24,-50.24 l -2.7492,-8.3176 c 0,0 -1.1564,-0.0779 -3.4064,-0.0875 z m 62.559,-0.13932 c 26.38,10.723 49.34,24.931 67.165,44.514 l 0.002,0.002 4.2794,-0.27998 c 0,0 -24.518,-29.746 -71.447,-44.236 z m 72.712,57.183 5.2496,3.8672 c 0.65793,-1.1408 3.31,6.0651 4.9229,8.0668 0.0683,0.3997 -2.6812,3.6124 -3.6164,3.42 -0.0787,-0.41087 -4.3494,-1.6449 -4.3494,-1.6449 0,0 -4.853,-2.932 -5.5451,-3.8847 -0.6926,-0.9527 3.0007,-9.1925 3.3383,-9.8244 z"
       stroke="#ffffff"
       stroke-linejoin="round"
       stroke-width="2.9864"
       id="path17" />
    <path
       d="m 69.929,127.71 c -29.464,0.0337 -48.949,2.4206 -48.949,2.4206 0,0 107.73,-5.1706 194.03,29.769 2.9338,13.122 11.759,34.976 16.513,45.481 -13.602,9.4041 -28.94,18.249 -31.328,49.612 -2.3877,31.362 24.576,58.947 58.013,59.798 31.751,1.6913 53.688,1.9323 80.277,15.718 25.38,14.034 46.192,56.794 48.251,95.252 2.2244,-28.534 -8.4845,-89.895 -58.453,-108.53 69.826,12.219 75.982,63.973 75.984,63.994 0,0 5.2056,-59.754 -88.677,-73.531 -11.899,-1.7458 -26.947,-3.0899 -42.168,-3.1283 -75.246,0.99487 -77.989,-86.786 -21.288,-91.218 23.499,-1.9389 51.556,10.738 78.986,23.512 -0.10182,3.4068 0.0404,6.4339 2.2787,9.2314 2.2375,2.7966 10.832,5.8474 13.579,7.4233 2.7464,1.5764 11.545,7.1715 16.937,14.189 1.1692,-2.1872 10.933,-8.5432 10.933,-8.5432 0,0 -2.3391,0.0507 -7.781,-1.9832 -5.4426,-2.0339 -11.9,-8.1876 -12.053,-8.5432 -0.15246,-0.35625 -0.25501,-0.91601 1.0169,-1.1705 0.96572,-0.81305 -1.2209,-3.4575 -2.1873,-4.4232 -0.96572,-0.96636 -7.4247,-11.95 -7.5769,-12.204 -0.15245,-0.25447 -0.20376,-0.50931 -0.66105,-0.81465 -1.4244,-0.45805 -7.6799,0.66106 -7.6799,0.66106 0,0 -9.6211,-4.7252 -12.937,-14.913 0.0482,1.7844 -1.6497,3.734 0,7.8335 -5.0162,-2.122 -9.325,-5.7416 -12.723,-14.685 -2.0227,5.0868 0,8.3215 0,8.3215 0,0 -11.811,-3.3016 -13.701,-14.195 -2.0742,4.8902 0,7.8316 0,7.8316 0,0 -19.258,-10.048 -51.255,-10.194 -21.422,-1.965 -25.882,-39.65 -23.897,-45.994 0,0 -30.899,-16.285 -91.723,-23.479 -22.809,-2.6982 -44.081,-3.5238 -61.76,-3.5036 z m 71.276,32.521 c -9.2697,0.0699 -19.22,0.41577 -29.674,1.1588 -55.751,3.9628 -112.04,23.477 -112.04,23.477 0,0 115.18,-28.98 211.77,-11.971 h 0.002 l -2.512,-8.1057 c 0,0 -27.373,-4.5594 -67.542,-4.5594 z m 68.293,17.263 c -9.75,-0.0412 -40.02,1.1848 -85.564,15.436 -57.124,17.874 -89.522,43.21 -89.522,43.21 0,0 85.141,-47.539 181.24,-50.24 l -2.7492,-8.3176 c 0,0 -1.1564,-0.0779 -3.4064,-0.0875 z m 62.559,-0.13932 c 26.38,10.723 49.34,24.931 67.165,44.514 l 0.002,0.002 4.2794,-0.27998 c 0,0 -24.518,-29.746 -71.446,-44.236 z m 74.662,61.731 c 0.85796,0.17286 2.4779,3.3567 3.9644,5.6306 0.13054,0.18477 0.26356,0.38112 0.38886,0.53662 0.002,0.0138 0.003,0.0234 0.006,0.037 0.16796,0.23967 0.33693,0.4887 0.49774,0.68826 0.0812,0.47558 0.21641,0.76558 -0.89631,0.53663 -0.0936,-0.48886 -0.25471,-0.62995 -0.25471,-0.62995 0,0 -2.686,-1.5982 -3.5094,-2.7317 -0.82408,-1.1335 -0.96948,-3.1153 -0.56774,-3.8672 0.0978,-0.16967 0.2236,-0.23004 0.37137,-0.20027 z"
       id="path19" />
  </g>
</svg>
