<?xml version="1.0" encoding="UTF-8" standalone="no"?>
<svg
   height="256"
   width="255.99998"
   version="1.1"
   id="svg17"
   sodipodi:docname="lubuntu.svg"
   inkscape:version="1.1.2 (b8e25be833, 2022-02-05)"
   xmlns:inkscape="http://www.inkscape.org/namespaces/inkscape"
   xmlns:sodipodi="http://sodipodi.sourceforge.net/DTD/sodipodi-0.dtd"
   xmlns="http://www.w3.org/2000/svg"
   xmlns:svg="http://www.w3.org/2000/svg">
  <defs
     id="defs21" />
  <sodipodi:namedview
     id="namedview19"
     pagecolor="#ffffff"
     bordercolor="#666666"
     borderopacity="1.0"
     inkscape:pageshadow="2"
     inkscape:pageopacity="0.0"
     inkscape:pagecheckerboard="0"
     showgrid="false"
     fit-margin-top="0"
     fit-margin-left="0"
     fit-margin-right="0"
     fit-margin-bottom="0"
     inkscape:zoom="0.7240426"
     inkscape:cx="131.89832"
     inkscape:cy="98.060529"
     inkscape:window-width="1920"
     inkscape:window-height="1017"
     inkscape:window-x="-8"
     inkscape:window-y="-8"
     inkscape:window-maximized="1"
     inkscape:current-layer="svg17" />
  <path
     d="M 127.99976,0 C 57.30107,0 0,57.323943 0,128.01484 c 0,1.64216 0.0261,3.27178 0.0877,4.89895 40.88712,-28.85503 110.60787,-76.402517 127.88311,-77.654317 5.72591,-7.25199 25.28023,-13.0161 28.84307,-12.88892 l -10.20743,12.77228 c 0,0 -0.32365,13.05623 -4.14117,15.60088 35.638,23.81397 52.74181,109.457597 60.01904,161.344527 32.40404,-23.22375 53.51566,-61.16882 53.51566,-104.0734 C 256.01868,57.323943 198.71757,0 128.01514,0 Z m -6.32859,115.65081 c -9.58664,0.28601 -29.25509,28.9294 -51.47419,59.60395 -10.67731,14.74045 -21.70964,30.11533 -31.876,44.0906 C 61.41751,242.02174 93.07299,256 127.99976,256 c 25.03721,0 48.39804,-7.17247 68.12668,-19.59582 -15.17993,-46.40664 -44.04343,-120.5199 -73.58036,-120.69533 -0.28799,-0.0507 -0.56563,-0.0676 -0.87491,-0.0583 z m -71.7722,11.69329 c -8.78023,-0.0663 -30.50834,7.48357 -49.14099,14.66775 1.89411,17.41387 7.2623,33.77592 15.42761,48.37723 3.74118,-5.65248 7.64643,-11.48408 11.51976,-17.17546 14.79413,-21.73829 29.1179,-40.94043 25.7517,-44.90709 -0.60139,-0.66354 -1.83289,-0.94926 -3.55808,-0.96229 z m 23.09774,10.93521 c -7.0862,1.07382 -32.68177,32.97324 -53.01973,58.43754 3.30657,5.18726 6.96787,10.1121 10.9656,14.75519 20.90462,-34.22625 44.30427,-71.53819 43.04579,-73.07609 -0.27045,-0.12723 -0.60978,-0.17449 -0.99166,-0.11664 z"
     fill="#0068c8"
     fill-rule="evenodd"
     id="path2"
     style="stroke-width:0.933189" />
</svg>
