<?xml version="1.0" encoding="UTF-8" standalone="no"?>
<svg
   id="b6bdd2b4-52ab-488a-9a30-1e6d1d7dd2d4"
   data-name="Layer 1"
   viewBox="0 0 258.00001 195.71519"
   version="1.1"
   sodipodi:docname="redhat.svg"
   width="258"
   height="195.71519"
   inkscape:version="1.1.2 (b8e25be833, 2022-02-05)"
   xmlns:inkscape="http://www.inkscape.org/namespaces/inkscape"
   xmlns:sodipodi="http://sodipodi.sourceforge.net/DTD/sodipodi-0.dtd"
   xmlns="http://www.w3.org/2000/svg"
   xmlns:svg="http://www.w3.org/2000/svg"
   xmlns:rdf="http://www.w3.org/1999/02/22-rdf-syntax-ns#"
   xmlns:cc="http://creativecommons.org/ns#"
   xmlns:dc="http://purl.org/dc/elements/1.1/">
  <metadata
     id="metadata15">
    <rdf:RDF>
      <cc:Work
         rdf:about="">
        <dc:format>image/svg+xml</dc:format>
        <dc:type
           rdf:resource="http://purl.org/dc/dcmitype/StillImage" />
      </cc:Work>
    </rdf:RDF>
  </metadata>
  <sodipodi:namedview
     pagecolor="#ffffff"
     bordercolor="#666666"
     borderopacity="1"
     objecttolerance="10"
     gridtolerance="10"
     guidetolerance="10"
     inkscape:pageopacity="0"
     inkscape:pageshadow="2"
     inkscape:window-width="1920"
     inkscape:window-height="1017"
     id="namedview13"
     showgrid="false"
     fit-margin-top="1"
     fit-margin-right="1"
     fit-margin-bottom="1"
     fit-margin-left="1"
     inkscape:zoom="1.8372017"
     inkscape:cx="133.08283"
     inkscape:cy="17.417793"
     inkscape:window-x="-8"
     inkscape:window-y="-8"
     inkscape:window-maximized="1"
     inkscape:current-layer="b6bdd2b4-52ab-488a-9a30-1e6d1d7dd2d4"
     inkscape:pagecheckerboard="0" />
  <defs
     id="defs4">
    <style
       id="style2">.a737459c-e8c7-4afa-8008-f6cfd15ccda2{fill:#e00;}</style>
  </defs>
  <path
     class="a737459c-e8c7-4afa-8008-f6cfd15ccda2"
     d="m 171.84603,112.65528 c 16.81556,0 41.16448,-3.49763 41.16448,-23.541775 a 26.272622,26.272622 0 0 0 -0.40357,-4.573831 L 202.65213,40.953757 C 200.36521,31.402522 198.34735,26.963216 181.53179,18.622701 168.48292,11.896479 140.09827,1 131.62323,1 c -7.93695,0 -10.22386,10.089333 -19.50605,10.089333 -9.01313,0 -15.604831,-7.5333687 -24.07987,-7.5333687 -8.071467,0 -13.31792,5.5155018 -17.353653,16.8155547 0,0 -11.300052,31.882291 -12.779821,36.590646 a 8.2732528,8.2732528 0 0 0 -0.269049,2.555964 C 57.500263,71.894377 106.33263,112.52076 171.84603,112.65528 m 43.72044,-15.335784 c 2.28692,11.031004 2.28692,12.241724 2.28692,13.586964 0,18.83342 -21.12034,29.32633 -48.96689,29.32633 -62.95744,0 -117.977935,-36.85969 -117.977935,-61.208618 a 24.685234,24.685234 0 0 1 2.017867,-9.820283 C 30.326327,70.280084 1,74.315817 1,100.14451 c 0,42.3752 100.35523,94.57068 179.72465,94.57068 60.93956,0 76.27535,-27.57751 76.27535,-49.37047 0,-17.0846 -14.79769,-36.45612 -41.43353,-48.025224"
     id="path8"
     inkscape:connector-curvature="0"
     style="fill:#ee0000;stroke-width:1.34524" />
  <path
     d="m 215.56647,97.319496 c 2.28692,11.031004 2.28692,12.241724 2.28692,13.586964 0,18.83342 -21.12034,29.32633 -48.96689,29.32633 -62.95744,0 -117.977935,-36.85969 -117.977935,-61.208618 a 24.685234,24.685234 0 0 1 2.017867,-9.820283 l 4.977404,-12.241724 a 8.2732528,8.2732528 0 0 0 -0.269049,2.555964 c 0,12.376248 48.832373,53.002631 114.211243,53.002631 16.81556,0 41.16448,-3.49764 41.16448,-23.541779 a 26.272622,26.272622 0 0 0 -0.40357,-4.573831 z"
     id="path10"
     inkscape:connector-curvature="0"
     style="stroke-width:1.34524" />
</svg>
