<?xml version="1.0" encoding="UTF-8" standalone="no"?>
<svg
   width="256"
   height="119.62152"
   version="1.1"
   id="svg4"
   sodipodi:docname="tumbleweed.svg"
   inkscape:version="1.1.2 (b8e25be833, 2022-02-05)"
   xmlns:inkscape="http://www.inkscape.org/namespaces/inkscape"
   xmlns:sodipodi="http://sodipodi.sourceforge.net/DTD/sodipodi-0.dtd"
   xmlns="http://www.w3.org/2000/svg"
   xmlns:svg="http://www.w3.org/2000/svg">
  <defs
     id="defs8" />
  <sodipodi:namedview
     id="namedview6"
     pagecolor="#ffffff"
     bordercolor="#666666"
     borderopacity="1.0"
     inkscape:pageshadow="2"
     inkscape:pageopacity="0.0"
     inkscape:pagecheckerboard="0"
     showgrid="false"
     fit-margin-top="0"
     fit-margin-left="0"
     fit-margin-right="0"
     fit-margin-bottom="0"
     inkscape:zoom="11.046954"
     inkscape:cx="47.84124"
     inkscape:cy="22.359104"
     inkscape:window-width="1920"
     inkscape:window-height="1017"
     inkscape:window-x="-8"
     inkscape:window-y="-8"
     inkscape:window-maximized="1"
     inkscape:current-layer="svg4" />
  <path
     fill="#ffffff"
     d="M 196.57415,0 C 184.84241,0 173.43677,3.3893477 163.27942,9.1790379 153.40006,14.805676 144.79037,22.439727 137.12157,30.776774 a 186.63064,186.63064 0 0 0 -8.74067,10.256252 295.92641,295.92641 0 0 0 -7.83987,10.389901 c -1.2964,1.785556 -2.58478,3.576457 -3.87583,5.370031 -2.57409,3.576457 -5.19362,7.155587 -8.19003,10.395247 a 229.18994,229.18994 0 0 1 -8.537526,8.748687 c -7.281217,7.075397 -15.051591,13.800633 -23.634552,19.258873 -6.786715,4.314201 -14.725487,8.425255 -22.966306,8.425255 -22.097585,0 -41.907093,-17.52143 -41.907093,-44.189823 0,-26.66572 19.047707,-41.142619 41.907093,-41.142619 13.244651,0 24.955008,5.650695 36.317877,15.428482 l -6.081046,6.25479 14.8725,3.75822 14.869823,3.75822 -4.18055,-14.757562 -4.18055,-14.757562 -6.653064,6.84552 C 86.676955,14.420766 72.229459,6.0970837 54.098587,6.0970837 24.380316,6.0944107 0,27.430194 0,60.192998 c 0,31.239201 24.380316,54.093242 51.813183,54.093242 11.349504,0 22.338154,-3.38133 32.081192,-9.11756 8.735322,-5.15085 16.361355,-11.942907 23.361905,-19.22947 2.36292,-2.456475 4.65902,-4.977102 6.93908,-7.508421 2.95365,-3.285101 5.72821,-6.543472 8.2034,-10.272289 l 3.26371,-4.912951 c 2.00207,-3.012456 3.85178,-5.998183 5.99819,-8.927777 3.95334,-5.399434 8.09647,-10.665219 12.55502,-15.655686 7.47901,-8.374468 15.95238,-16.166226 25.93599,-21.453395 7.92006,-4.193916 16.68479,-6.543472 25.66068,-6.543472 31.24187,0 48.7633,21.715348 48.7633,49.525106 0,25.906592 -16.7623,47.239705 -45.7161,47.239705 -16.54846,0 -31.05743,-4.48795 -46.34158,-17.703197 l 7.08075,-8.609691 -15.12911,-2.515281 -15.13178,-2.515281 5.38607,14.36196 5.39141,14.36196 6.0169,-7.313293 c 14.81102,13.327513 30.95854,22.124313 51.96554,22.124313 C 233.14329,119.62152 256,92.953129 256,59.428524 256,24.380316 232.38416,0 196.57415,0"
     id="path2"
     style="stroke-width:2.67299" />
</svg>
