<?xml version="1.0" encoding="UTF-8" standalone="no"?>
<svg
   width="256"
   height="256"
   viewBox="-142.5 -142.5 256 256"
   version="1.1"
   id="svg13"
   sodipodi:docname="ubuntu.svg"
   inkscape:version="1.1.2 (b8e25be833, 2022-02-05)"
   xmlns:inkscape="http://www.inkscape.org/namespaces/inkscape"
   xmlns:sodipodi="http://sodipodi.sourceforge.net/DTD/sodipodi-0.dtd"
   xmlns:xlink="http://www.w3.org/1999/xlink"
   xmlns="http://www.w3.org/2000/svg"
   xmlns:svg="http://www.w3.org/2000/svg">
  <defs
     id="defs17" />
  <sodipodi:namedview
     id="namedview15"
     pagecolor="#ffffff"
     bordercolor="#666666"
     borderopacity="1.0"
     inkscape:pageshadow="2"
     inkscape:pageopacity="0.0"
     inkscape:pagecheckerboard="0"
     showgrid="false"
     fit-margin-top="0"
     fit-margin-left="0"
     fit-margin-right="0"
     fit-margin-bottom="0"
     inkscape:zoom="2.9157895"
     inkscape:cx="141.81408"
     inkscape:cy="141.98556"
     inkscape:window-width="1920"
     inkscape:window-height="1017"
     inkscape:window-x="-8"
     inkscape:window-y="-8"
     inkscape:window-maximized="1"
     inkscape:current-layer="svg13" />
  <circle
     fill="#dd4814"
     r="128"
     id="circle2"
     cx="-14.5"
     cy="-14.5"
     style="stroke-width:0.903113" />
  <g
     id="U"
     fill="#ffffff"
     transform="matrix(0.90311295,0,0,0.90311295,-14.5,-14.5)">
    <circle
       cx="-96.377197"
       r="18.921499"
       id="circle4"
       cy="0" />
    <path
       d="M -45.6059,68.395 C -62.1655,57.3316 -74.4844,40.4175 -79.6011,20.6065 -73.623,15.7354 -69.8047,8.3164 -69.8047,0 c 0,-8.3164 -3.8183,-15.7354 -9.7964,-20.6065 5.1167,-19.811 17.4356,-36.7251 33.9952,-47.7885 l 13.8344,23.1738 C -45.9824,-35.2197 -55.2754,-18.7026 -55.2754,0 c 0,18.7026 9.293,35.2197 23.5039,45.2212 z"
       id="path6" />
  </g>
  <use
     xlink:href="#U"
     transform="rotate(120,-14.500001,-14.500001)"
     id="use9"
     x="0"
     y="0"
     width="100%"
     height="100%" />
  <use
     xlink:href="#U"
     transform="rotate(-120,-14.500001,-14.500001)"
     id="use11"
     x="0"
     y="0"
     width="100%"
     height="100%" />
</svg>
