<?xml version="1.0" encoding="UTF-8" standalone="no"?>
<svg
   width="256"
   height="255.99998"
   viewBox="0 0 256 255.99998"
   version="1.1"
   preserveAspectRatio="xMidYMid"
   id="svg18"
   sodipodi:docname="void.svg"
   inkscape:version="1.1.2 (b8e25be833, 2022-02-05)"
   xmlns:inkscape="http://www.inkscape.org/namespaces/inkscape"
   xmlns:sodipodi="http://sodipodi.sourceforge.net/DTD/sodipodi-0.dtd"
   xmlns="http://www.w3.org/2000/svg"
   xmlns:svg="http://www.w3.org/2000/svg">
  <defs
     id="defs22" />
  <sodipodi:namedview
     id="namedview20"
     pagecolor="#ffffff"
     bordercolor="#666666"
     borderopacity="1.0"
     inkscape:pageshadow="2"
     inkscape:pageopacity="0.0"
     inkscape:pagecheckerboard="0"
     showgrid="false"
     fit-margin-top="0"
     fit-margin-left="0"
     fit-margin-right="0"
     fit-margin-bottom="0"
     inkscape:zoom="3.9383886"
     inkscape:cx="105.24609"
     inkscape:cy="105.62696"
     inkscape:window-width="1920"
     inkscape:window-height="1017"
     inkscape:window-x="-8"
     inkscape:window-y="-8"
     inkscape:window-maximized="1"
     inkscape:current-layer="g16" />
  <g
     id="g16"
     transform="translate(-22.781918)">
    <path
       d="M 150.78191,0 C 123.98395,0.05690357 97.879682,8.5231261 76.149262,24.2051 l 29.073468,29.073468 c 13.71706,-8.390943 29.47924,-12.844084 45.55918,-12.871428 48.37624,-9.5e-5 87.59295,39.216611 87.59285,87.59285 -0.0387,16.07422 -4.49987,31.82785 -12.8949,45.53571 l 29.12857,29.12857 c 15.677,-21.74298 24.13242,-47.85897 24.17349,-74.66428 C 278.78192,57.307554 221.47435,0 150.78191,0 Z"
       fill="#abc2ab"
       id="path2"
       style="stroke-width:1.21633" />
    <path
       d="m 225.41456,231.79488 -29.07347,-29.07346 c -13.71706,8.39094 -29.47924,12.8441 -45.55918,12.87142 -48.37624,1e-4 -87.592947,-39.21661 -87.592851,-87.59285 0.03871,-16.07422 4.499856,-31.82785 12.894897,-45.535709 L 46.955371,53.335711 C 31.278363,75.078686 22.82299,101.19468 22.781918,127.99999 c 0,70.69244 57.307555,127.99999 127.999992,127.99999 26.79796,-0.0569 52.90223,-8.52311 74.63265,-24.2051 z"
       fill="#478061"
       id="path4"
       style="stroke-width:1.21633" />
    <circle
       fill="#abc2ab"
       cx="150.76146"
       cy="127.99999"
       r="40.751019"
       id="circle6"
       style="stroke-width:1.21633" />
  </g>
</svg>
